<svg version="1.1" id="Layer_1" xmlns="http://www.w3.org/2000/svg" xmlns:xlink="http://www.w3.org/1999/xlink" x="0px" y="0px"
	 width="100%" viewBox="0 0 256 256" enable-background="new 0 0 256 256" xml:space="preserve">
<path fill="#FEFEFE" opacity="1.000000" stroke="none" 
	d="
M1.000000,89.000000 
	C1.000000,59.333340 1.000000,30.166677 1.000000,1.000012 
	C86.333313,1.000008 171.666626,1.000008 256.999939,1.000004 
	C256.999969,86.333290 256.999969,171.666580 257.000000,256.999908 
	C171.666718,256.999939 86.333435,256.999939 1.000077,256.999969 
	C1.000000,201.166672 1.000000,145.333328 1.000000,89.000000 
M8.004125,9.947622 
	C8.004125,89.923126 8.004125,169.898636 8.004125,250.061417 
	C46.595631,250.061417 84.530365,250.069611 122.465027,250.017960 
	C123.499634,250.016556 124.533356,249.370316 125.924042,248.280350 
	C125.959717,247.616730 126.026649,246.953110 126.026634,246.289490 
	C126.025024,168.604706 126.022278,90.919937 125.982269,13.235172 
	C125.981537,11.808332 125.533813,10.381723 124.719513,8.267741 
	C123.898735,8.176646 123.077972,8.006102 122.257172,8.005877 
	C85.365120,7.995775 48.473061,7.991469 11.581091,8.046541 
	C10.436972,8.048248 9.293798,8.683511 8.004125,9.947622 
M131.104828,153.499969 
	C131.104828,185.575394 131.104828,217.650833 131.104828,249.662323 
	C171.101791,249.662323 210.351624,249.662323 249.641968,249.662323 
	C249.641968,169.162521 249.641968,88.935638 249.641968,8.648619 
	C210.019455,8.648619 170.662445,8.648619 131.104828,8.648619 
	C131.104828,56.869579 131.104828,104.684776 131.104828,153.499969 
z"/>
<path fill="#020202" opacity="1.000000" stroke="none" 
	d="
M131.104828,152.999969 
	C131.104828,104.684776 131.104828,56.869579 131.104828,8.648619 
	C170.662445,8.648619 210.019455,8.648619 249.641968,8.648619 
	C249.641968,88.935638 249.641968,169.162521 249.641968,249.662323 
	C210.351624,249.662323 171.101791,249.662323 131.104828,249.662323 
	C131.104828,217.650833 131.104828,185.575394 131.104828,152.999969 
M223.210724,88.123749 
	C200.280228,88.123749 177.349731,88.123749 154.259247,88.123749 
	C154.259247,95.385490 154.259247,102.123886 154.259247,109.332138 
	C162.242920,109.332138 169.987289,109.332138 178.177902,109.332138 
	C178.177902,128.874695 178.177902,147.951202 178.177902,167.099274 
	C185.901337,167.099274 193.161072,167.099274 200.907013,167.099274 
	C200.907013,147.803848 200.907013,128.740463 200.907013,109.215240 
	C209.123596,109.215240 216.866135,109.215240 225.378769,109.215240 
	C224.953842,101.873055 224.557755,95.029053 223.210724,88.123749 
z"/>
<path fill="#9E9E9E" opacity="1.000000" stroke="none" 
	d="
M125.294647,8.955007 
	C125.533813,10.381723 125.981537,11.808332 125.982269,13.235172 
	C126.022278,90.919937 126.025024,168.604706 126.026634,246.289490 
	C126.026649,246.953110 125.959717,247.616730 125.326241,248.636749 
	C124.450409,248.964523 124.172379,248.935898 123.944023,248.447235 
	C124.003029,169.534790 124.013206,91.082352 124.013466,12.629925 
	C124.013466,11.467501 123.890083,10.305078 124.191444,9.092400 
	C124.803955,9.013100 125.049301,8.984053 125.294647,8.955007 
z"/>
<path fill="#646464" opacity="1.000000" stroke="none" 
	d="
M123.894348,248.907272 
	C124.172379,248.935898 124.450409,248.964523 125.147964,249.008957 
	C124.533356,249.370316 123.499634,250.016556 122.465027,250.017960 
	C84.530365,250.069611 46.595631,250.061417 8.004125,250.061417 
	C8.004125,169.898636 8.004125,89.923126 8.336794,9.498169 
	C8.842708,9.053410 9.015952,9.058104 9.128590,9.523851 
	C9.067984,89.538956 9.067984,169.093018 9.067984,248.907272 
	C47.680397,248.907272 85.787369,248.907272 123.894348,248.907272 
z"/>
<path fill="#737373" opacity="1.000000" stroke="none" 
	d="
M9.189196,9.062798 
	C9.015952,9.058104 8.842708,9.053410 8.409823,9.036061 
	C9.293798,8.683511 10.436972,8.048248 11.581091,8.046541 
	C48.473061,7.991469 85.365120,7.995775 122.257172,8.005877 
	C123.077972,8.006102 123.898735,8.176646 125.007080,8.611374 
	C125.049301,8.984053 124.803955,9.013100 123.735931,9.065029 
	C85.005226,9.079541 47.097214,9.071170 9.189196,9.062798 
z"/>
<path fill="#FBFBFB" opacity="1.000000" stroke="none" 
	d="
M223.686188,88.154404 
	C224.557755,95.029053 224.953842,101.873055 225.378769,109.215240 
	C216.866135,109.215240 209.123596,109.215240 200.907013,109.215240 
	C200.907013,128.740463 200.907013,147.803848 200.907013,167.099274 
	C193.161072,167.099274 185.901337,167.099274 178.177902,167.099274 
	C178.177902,147.951202 178.177902,128.874695 178.177902,109.332138 
	C169.987289,109.332138 162.242920,109.332138 154.259247,109.332138 
	C154.259247,102.123886 154.259247,95.385490 154.259247,88.123749 
	C177.349731,88.123749 200.280228,88.123749 223.686188,88.154404 
z"/>
<path fill="#FEFEFE" opacity="1.000000" stroke="none" 
	d="
M9.128590,9.523851 
	C47.097214,9.071170 85.005226,9.079541 123.368759,9.115284 
	C123.890083,10.305078 124.013466,11.467501 124.013466,12.629925 
	C124.013206,91.082352 124.003029,169.534790 123.944023,248.447235 
	C85.787369,248.907272 47.680397,248.907272 9.067984,248.907272 
	C9.067984,169.093018 9.067984,89.538956 9.128590,9.523851 
M77.440575,88.933983 
	C62.054493,88.164230 46.668407,87.394478 31.113079,86.616257 
	C31.113079,113.967819 31.113079,140.064865 31.113079,165.668503 
	C45.939056,165.668503 60.580532,166.337189 75.122185,165.421173 
	C84.043518,164.859192 91.710770,159.980652 97.909027,153.159561 
	C113.079430,136.464737 111.498672,97.958504 77.440575,88.933983 
z"/>
<path fill="#050505" opacity="1.000000" stroke="none" 
	d="
M77.846611,89.000496 
	C111.498672,97.958504 113.079430,136.464737 97.909027,153.159561 
	C91.710770,159.980652 84.043518,164.859192 75.122185,165.421173 
	C60.580532,166.337189 45.939056,165.668503 31.113079,165.668503 
	C31.113079,140.064865 31.113079,113.967819 31.113079,86.616257 
	C46.668407,87.394478 62.054493,88.164230 77.846611,89.000496 
M77.808304,112.657684 
	C70.823799,106.391716 62.390972,108.027466 54.136021,107.977890 
	C54.136021,120.851692 54.136021,133.370132 54.136021,145.985443 
	C64.743088,146.162155 75.788216,147.794647 81.551773,136.258224 
	C85.585487,128.184296 84.655891,120.123543 77.808304,112.657684 
z"/>
<path fill="#FCFCFC" opacity="1.000000" stroke="none" 
	d="
M78.088470,112.896164 
	C84.655891,120.123543 85.585487,128.184296 81.551773,136.258224 
	C75.788216,147.794647 64.743088,146.162155 54.136021,145.985443 
	C54.136021,133.370132 54.136021,120.851692 54.136021,107.977890 
	C62.390972,108.027466 70.823799,106.391716 78.088470,112.896164 
z"/>
</svg>